<?xml version="1.0" standalone="no"?>
<!DOCTYPE svg PUBLIC "-//W3C//DTD SVG 20010904//EN"
 "http://www.w3.org/TR/2001/REC-SVG-20010904/DTD/svg10.dtd">
<svg version="1.0" xmlns="http://www.w3.org/2000/svg"
 width="453.000000pt" height="453.000000pt" viewBox="0 0 453.000000 453.000000"
 preserveAspectRatio="xMidYMid meet">
<metadata>
Created by potrace 1.11, written by Peter Selinger 2001-2013
</metadata>
<g transform="translate(0.000000,453.000000) scale(0.100000,-0.100000)"
fill="#000000" stroke="none">
<path d="M1474 3208 c-3 -5 -10 -6 -15 -3 -5 4 -9 1 -9 -5 0 -7 -6 -10 -14 -7
-13 5 -38 -17 -48 -44 -5 -12 -23 -15 -92 -13 -47 0 -86 -3 -86 -8 0 -5 -4 -7
-8 -4 -5 3 -9 -1 -9 -9 0 -14 10 -19 32 -16 6 1 3 -4 -5 -11 -9 -7 -15 -24
-14 -38 1 -14 -2 -33 -7 -42 -6 -10 -5 -19 1 -23 8 -5 8 -11 1 -19 -7 -9 -7
-16 2 -25 9 -11 9 -14 -1 -18 -6 -3 -9 -10 -5 -16 11 -18 11 -57 0 -50 -6 4
-8 -2 -5 -15 4 -12 2 -22 -4 -22 -5 0 -6 -5 -3 -10 17 -27 -18 -62 -36 -37 -8
11 -62 20 -55 8 9 -14 -21 -21 -32 -8 -14 17 -12 68 2 60 6 -4 5 1 -3 10 -10
13 -11 20 -2 31 8 10 9 21 3 33 -5 10 -8 35 -6 56 2 33 -1 39 -22 36 -4 0 -11
5 -15 13 -5 7 -9 8 -9 2 0 -6 -18 -11 -41 -11 -34 0 -40 3 -36 18 3 12 0 16
-9 12 -8 -3 -18 6 -25 21 -7 14 -15 23 -20 21 -4 -3 -13 0 -21 7 -15 15 -35
21 -60 20 -10 0 -18 4 -18 10 0 6 -6 6 -15 -2 -8 -7 -15 -8 -15 -3 0 13 -53
11 -71 -3 -8 -6 -21 -13 -29 -16 -16 -6 -64 -88 -51 -88 5 0 7 -11 6 -24 -2
-13 1 -29 6 -37 7 -11 9 -11 9 -1 0 7 4 11 9 8 5 -4 12 0 14 6 3 7 6 3 6 -9 1
-13 6 -23 11 -23 6 0 10 -6 10 -14 0 -20 35 -29 105 -28 44 1 63 6 72 19 7 9
13 13 13 8 0 -5 6 -1 13 9 14 19 77 32 77 16 0 -6 5 -10 11 -10 5 0 7 5 4 11
-4 6 2 5 14 -3 23 -14 26 -24 11 -33 -6 -4 -7 -11 -4 -17 10 -16 11 -98 1 -98
-10 0 3 -53 16 -61 5 -4 5 -9 -2 -13 -6 -4 -11 -2 -11 5 0 8 -4 8 -15 -1 -13
-11 -14 -10 -9 3 4 11 0 15 -13 13 -10 -2 -21 2 -25 8 -5 7 -8 6 -8 -4 0 -13
-1 -13 -10 0 -6 9 -10 11 -10 3 0 -7 -7 -10 -17 -6 -11 5 -14 3 -8 -6 6 -10 3
-11 -14 -2 -11 7 -21 8 -21 3 0 -4 -14 -7 -30 -6 -17 1 -33 -2 -36 -7 -3 -5
-15 -4 -27 3 -12 6 -24 10 -27 9 -3 -2 -12 -7 -21 -12 -10 -5 -21 -3 -29 4
-10 9 -11 9 -6 0 5 -9 -3 -13 -26 -14 -70 -2 -83 -4 -97 -13 -10 -6 -12 -6 -7
2 5 8 1 10 -9 6 -9 -4 -14 -13 -11 -21 3 -8 1 -11 -4 -8 -8 5 -12 -7 -12 -45
-1 -3 2 -18 6 -33 4 -16 3 -26 -2 -23 -5 3 -9 -1 -9 -9 0 -8 7 -17 16 -20 11
-4 12 -8 4 -13 -9 -6 -9 -14 2 -35 10 -20 11 -27 2 -27 -7 0 -6 -4 3 -10 9 -6
10 -10 3 -10 -12 0 -12 -37 0 -57 9 -15 -3 -22 -28 -16 -11 2 -26 5 -32 5 -9
1 -10 5 -2 15 13 15 23 18 14 3 -3 -5 1 -10 10 -10 9 0 14 4 11 9 -4 5 0 11 6
14 7 2 10 7 7 11 -9 10 -69 14 -69 4 0 -5 -9 -4 -19 2 -25 13 -31 13 -31 -1 0
-5 5 -7 12 -3 7 4 8 3 4 -5 -6 -8 -12 -9 -20 -2 -7 6 -16 8 -20 4 -4 -4 -4 0
0 10 3 9 9 17 13 17 12 0 33 43 37 78 11 88 12 122 4 127 -5 3 -7 12 -3 20 3
8 0 15 -7 15 -6 0 -21 10 -32 23 -11 12 -17 16 -13 10 3 -7 1 -13 -4 -13 -6 0
-11 4 -11 8 0 4 -11 9 -26 10 -14 1 -34 7 -46 13 -15 8 -19 8 -13 -1 4 -7 1
-11 -6 -9 -59 7 -126 -44 -133 -103 -1 -3 -4 -10 -8 -14 -23 -22 4 -72 34 -66
5 1 7 -1 7 -6 -3 -20 2 -32 14 -29 6 1 11 -4 10 -10 -2 -7 2 -13 9 -13 6 0 20
-8 31 -17 11 -10 17 -12 13 -6 -5 9 -2 11 9 7 9 -4 14 -12 11 -20 -3 -7 0 -15
7 -17 9 -3 8 -9 -3 -22 -12 -15 -12 -17 -1 -10 11 6 13 3 8 -14 -7 -27 1 -53
14 -45 5 3 9 0 9 -6 0 -7 6 -8 19 0 14 7 22 7 26 0 5 -8 11 -8 19 -1 9 7 16 7
24 -1 7 -7 12 -8 12 -2 0 6 7 11 15 11 8 0 15 -5 15 -11 0 -6 4 -6 12 2 8 8
17 8 31 1 15 -8 18 -8 12 1 -6 9 -3 9 12 1 11 -6 24 -7 28 -3 5 4 5 1 1 -5 -4
-7 -2 -13 4 -13 7 0 10 -7 6 -15 -3 -8 0 -15 7 -15 8 0 6 -4 -3 -10 -11 -7
-11 -10 -2 -10 7 0 11 -4 8 -9 -4 -5 0 -12 6 -14 10 -4 10 -6 1 -6 -7 -1 -13
-8 -13 -17 0 -8 3 -13 8 -11 4 3 7 -7 8 -21 0 -15 4 -36 8 -47 5 -14 5 -16 -2
-7 -6 9 -37 14 -96 15 -51 1 -86 6 -86 12 0 6 -3 7 -8 0 -10 -14 -32 -17 -32
-4 0 5 -5 7 -10 4 -6 -3 -10 2 -10 11 0 10 -3 14 -6 11 -10 -9 -46 12 -39 23
3 6 -1 7 -9 4 -9 -4 -16 -1 -16 6 0 7 -7 10 -15 7 -8 -4 -17 -2 -21 4 -3 6
-12 8 -19 5 -8 -3 -16 0 -19 7 -5 9 -7 9 -11 1 -3 -7 -14 -10 -23 -7 -19 4
-95 -64 -87 -77 3 -5 -3 -11 -12 -14 -15 -6 -15 -8 -3 -16 8 -6 10 -10 4 -10
-6 0 -9 -13 -6 -30 2 -17 7 -29 10 -26 2 3 13 1 24 -5 11 -6 17 -13 14 -16 -3
-3 3 -13 12 -22 11 -10 12 -12 2 -6 -13 9 -13 8 -2 -7 8 -9 23 -18 35 -20 12
-2 21 -9 20 -15 -2 -9 4 -10 22 -3 14 5 25 7 25 4 0 -4 8 0 17 7 15 12 16 12
8 -1 -8 -13 -7 -13 11 0 10 8 25 21 32 28 7 6 18 12 23 12 6 0 7 5 4 10 -3 6
-1 10 4 10 6 0 11 7 11 15 0 22 40 41 51 24 7 -11 9 -11 9 1 0 11 3 11 8 3 9
-14 44 -12 54 2 5 6 8 6 8 -2 0 -6 9 -11 20 -10 11 1 20 5 20 10 0 5 6 5 13
-1 8 -7 18 -7 27 -2 8 5 19 6 25 2 5 -3 19 -6 29 -7 15 0 20 -8 21 -28 1 -16
8 -33 15 -37 7 -4 10 -15 7 -24 -4 -9 -2 -16 3 -16 6 0 10 -7 10 -15 0 -7 8
-19 18 -24 9 -6 13 -11 8 -11 -5 0 3 -11 18 -25 14 -13 26 -27 26 -30 0 -10
28 -35 39 -35 6 0 7 -7 4 -17 -4 -11 -3 -14 5 -9 11 7 17 -7 12 -29 -1 -5 2
-7 6 -3 4 5 18 -8 31 -27 13 -19 28 -35 34 -35 6 0 7 -5 3 -12 -4 -6 -3 -8 4
-4 6 3 15 -2 21 -11 6 -10 11 -14 11 -10 0 5 7 2 15 -5 34 -31 45 -38 45 -31
0 4 5 1 10 -8 12 -21 3 -78 -15 -91 -6 -5 -5 -8 2 -8 9 0 10 -7 3 -26 -13 -33
-13 -37 3 -28 8 5 8 2 -2 -9 -7 -9 -10 -17 -5 -17 5 0 0 -7 -10 -15 -11 -8
-15 -15 -10 -15 6 0 11 -7 11 -15 0 -8 -4 -15 -9 -15 -5 0 -7 -4 -4 -9 6 -9
-74 -19 -94 -13 -5 2 -10 10 -10 18 0 8 -5 14 -11 14 -7 0 -17 7 -23 15 -6 8
-23 16 -38 17 -16 1 -28 5 -28 8 0 3 -23 6 -50 6 -38 0 -49 -3 -46 -13 3 -7
-1 -13 -8 -13 -15 0 -28 -31 -29 -67 -1 -13 -5 -23 -10 -23 -5 0 -7 -6 -4 -12
2 -7 0 -22 -6 -33 -5 -11 -6 -17 -2 -13 4 4 14 0 22 -10 10 -11 12 -12 8 -2
-4 8 1 6 9 -4 9 -11 16 -24 16 -29 0 -4 5 -5 10 -2 5 3 10 -1 10 -10 0 -9 4
-14 9 -11 5 4 11 2 13 -4 2 -6 19 -10 38 -10 56 0 69 3 64 12 -3 4 2 8 10 8 9
0 16 5 16 11 0 5 5 7 12 3 6 -4 8 -3 4 4 -3 6 0 17 8 25 8 8 12 17 9 21 -4 3
1 6 10 6 10 0 17 6 17 13 0 7 3 8 8 2 8 -12 62 -15 62 -4 0 4 9 6 19 4 14 -2
21 4 26 22 6 24 7 24 19 8 17 -24 39 -10 33 21 -2 13 -1 24 2 24 4 0 6 23 5
50 -2 28 1 48 5 46 4 -3 7 15 6 39 -2 41 -1 43 23 39 14 -3 30 -8 36 -11 15
-10 56 -10 56 -1 0 4 9 8 21 8 11 0 18 4 15 9 -3 5 2 11 12 13 12 4 18 -1 19
-14 1 -12 -2 -16 -10 -11 -9 5 -9 3 -1 -8 7 -8 8 -23 4 -34 -4 -11 -5 -25 -3
-31 2 -7 -12 -28 -32 -47 -20 -20 -37 -41 -39 -49 -1 -7 -6 -19 -10 -27 -7
-10 -5 -12 3 -6 10 6 11 3 1 -15 -7 -12 -8 -25 -4 -29 5 -3 10 -14 12 -25 2
-13 0 -16 -10 -10 -7 5 -2 -6 12 -23 14 -18 30 -31 35 -29 6 2 16 -4 23 -13 8
-9 11 -10 7 -3 -3 6 -1 12 5 12 6 0 13 -7 17 -16 5 -13 8 -13 15 -2 7 9 8 6 5
-10 -5 -23 -5 -23 14 -6 10 9 19 13 19 8 0 -5 5 -2 10 6 9 13 10 13 10 0 1
-12 4 -11 15 4 8 10 19 15 26 10 7 -4 10 -3 5 4 -3 6 7 25 23 41 17 17 26 31
20 31 -6 0 -5 8 2 21 8 16 8 20 0 14 -8 -4 -10 2 -7 19 3 14 1 26 -4 26 -5 0
-7 6 -4 14 3 8 1 17 -5 21 -6 3 -11 13 -11 21 0 18 -25 46 -34 37 -3 -3 -8 2
-12 11 -3 9 -11 13 -16 10 -7 -4 -9 7 -6 30 2 20 0 36 -5 36 -5 0 -4 7 3 15 7
9 8 15 2 15 -5 0 -8 9 -5 20 3 11 9 18 13 15 8 -5 62 33 68 47 2 5 7 6 12 3 5
-3 17 6 28 20 11 13 22 21 26 18 3 -3 6 1 6 10 0 8 9 19 20 22 11 4 18 10 15
15 -7 12 36 41 49 33 6 -3 8 -3 4 2 -4 4 -2 13 5 20 37 38 53 62 49 74 -3 8 0
11 7 7 6 -4 11 -1 11 8 0 8 11 28 25 43 14 15 24 23 23 16 -3 -11 0 -13 28
-13 9 0 13 5 9 13 -4 6 1 3 9 -7 12 -15 16 -16 16 -5 0 12 2 12 10 -1 9 -13
10 -13 10 0 0 12 2 12 9 1 7 -10 13 -11 30 -2 16 9 21 9 21 0 0 -8 4 -8 15 1
12 10 15 10 15 -1 0 -9 3 -10 8 -4 10 14 32 17 32 4 0 -8 5 -8 15 1 11 9 15 9
15 1 0 -8 5 -9 19 -1 26 13 34 13 25 -2 -5 -7 -2 -9 9 -5 8 3 25 -3 38 -14 20
-17 19 -24 -3 -20 -4 0 -3 -11 2 -25 7 -19 7 -23 -2 -18 -8 5 -9 2 -5 -9 3 -9
3 -16 -1 -14 -4 1 -18 -6 -32 -16 -13 -9 -20 -17 -15 -17 6 0 2 -5 -8 -11 -9
-6 -15 -14 -12 -20 4 -5 3 -9 -2 -9 -13 0 -7 -68 8 -87 11 -13 11 -15 1 -9
-11 7 -12 4 -3 -13 7 -11 15 -21 20 -21 4 0 18 -9 31 -20 27 -24 58 -26 86 -5
12 8 24 11 28 8 3 -3 6 -1 6 6 0 7 4 10 9 6 5 -3 22 6 38 21 15 14 21 23 13
19 -10 -4 -9 -2 2 8 10 8 15 17 11 20 -3 4 -2 7 4 7 11 0 11 39 0 58 -5 7 -3
12 4 12 8 0 6 6 -4 18 -10 10 -17 24 -17 31 0 7 -4 9 -10 6 -5 -3 -10 -1 -10
5 0 6 -4 8 -10 5 -5 -3 -10 -2 -10 3 0 5 -11 14 -25 20 -23 11 -24 14 -14 34
7 13 11 25 10 28 -2 3 -7 13 -12 23 -7 11 -6 17 1 17 7 0 8 6 1 18 -5 9 -10
21 -10 27 -1 5 -17 8 -36 6 -24 -2 -35 2 -35 11 0 8 -3 9 -8 3 -10 -14 -32
-17 -32 -5 0 7 -6 8 -17 1 -10 -5 -26 -5 -39 -1 -12 5 -25 6 -28 2 -10 -10
-36 -11 -36 -1 0 4 -10 5 -22 0 -13 -4 -35 -5 -50 0 -16 4 -28 4 -28 -1 0 -6
-11 -5 -26 0 -32 12 -37 12 -29 0 3 -5 0 -7 -9 -4 -18 7 -11 61 11 82 7 8 11
18 8 23 -4 5 -1 9 5 9 6 0 8 5 5 10 -3 6 -1 10 4 10 6 0 11 -4 11 -9 0 -6 9
-8 20 -6 11 2 22 -1 26 -6 4 -6 10 -7 17 0 15 12 27 12 51 -1 13 -7 16 -7 12
1 -8 12 53 9 74 -4 8 -5 11 -4 7 2 -4 6 20 9 66 8 64 -1 73 -4 82 -23 5 -12
13 -22 17 -22 4 0 5 -7 2 -15 -4 -8 -10 -12 -15 -9 -16 10 -9 -12 11 -36 11
-13 20 -19 20 -15 0 4 8 1 18 -8 10 -10 22 -14 26 -10 12 12 40 12 55 0 12 -9
13 -9 7 1 -4 6 -4 12 1 13 29 3 48 9 51 18 2 6 8 11 13 11 6 0 7 -6 3 -12 -4
-7 2 -4 13 7 11 11 31 28 43 39 18 15 20 20 9 27 -11 7 -11 9 -1 9 8 0 12 8
10 18 -2 9 3 22 11 28 12 10 10 14 -17 28 -27 14 -31 14 -26 1 4 -8 1 -15 -6
-15 -7 0 -10 -8 -7 -20 3 -11 1 -20 -3 -20 -4 0 -6 -8 -4 -17 5 -20 -31 -49
-41 -33 -3 6 0 10 8 10 7 0 14 6 15 13 5 49 11 88 16 96 4 5 2 12 -3 16 -6 3
-8 12 -5 20 3 8 -4 20 -15 27 -12 7 -21 20 -22 28 0 11 -2 11 -6 2 -4 -10 -8
-10 -19 -1 -11 9 -14 9 -14 -1 0 -7 -7 -10 -15 -7 -8 4 -17 2 -20 -3 -9 -15
-27 -12 -20 3 4 6 1 5 -7 -3 -7 -8 -19 -15 -25 -16 -29 -2 -34 -4 -28 -13 3
-5 -4 -12 -15 -16 -11 -3 -19 -9 -19 -13 4 -28 -3 -32 -22 -11 -11 13 -18 18
-14 11 5 -10 -3 -12 -34 -8 -23 3 -39 1 -36 -4 3 -5 -7 -5 -23 -1 -16 5 -36 5
-45 -1 -11 -6 -17 -5 -17 2 0 5 -5 10 -11 10 -5 0 -7 -5 -3 -11 4 -8 0 -8 -15
0 -16 9 -21 9 -21 -1 0 -9 -3 -9 -10 2 -9 13 -11 13 -20 0 -8 -12 -10 -12 -10
-1 0 10 -4 11 -13 3 -8 -7 -19 -6 -37 3 -15 9 -19 14 -10 15 13 0 13 1 0 10
-12 7 -12 10 -1 10 7 0 11 6 7 15 -3 8 -1 15 5 15 6 0 6 7 -1 20 -8 15 -8 20
1 20 8 0 7 5 -2 17 -10 11 -10 14 -1 9 7 -4 12 -1 12 9 0 10 -5 13 -12 9 -9
-5 -9 -2 1 9 7 9 10 17 6 17 -4 0 -1 8 6 17 12 15 12 16 -1 8 -12 -7 -13 -6
-4 6 12 15 13 18 16 100 2 47 6 55 23 57 14 1 16 -1 6 -7 -7 -5 -11 -13 -7
-19 8 -14 66 -12 66 2 0 6 5 4 11 -4 7 -10 12 -11 15 -4 5 13 51 6 61 -9 3 -6
1 -7 -5 -3 -16 10 -15 -7 1 -23 10 -11 9 -13 -3 -7 -12 6 -12 5 1 -6 9 -7 14
-20 11 -28 -3 -8 -1 -12 3 -8 4 4 15 -1 24 -12 20 -23 92 -30 115 -11 9 7 16
10 16 7 0 -4 11 4 24 16 13 13 21 26 19 31 -2 4 1 7 7 7 6 0 9 4 5 9 -3 5 -1
12 3 15 14 8 8 76 -7 85 -11 7 -11 10 0 14 10 4 9 6 -3 6 -10 1 -17 4 -17 9 3
16 -1 32 -8 31 -5 -1 -11 0 -15 1 -22 6 -118 4 -118 -3 0 -5 -4 -6 -8 -3 -13
8 -59 -38 -54 -54 5 -13 3 -13 -10 0 -10 11 -36 15 -84 15 l-69 0 -5 49 c-4
42 -8 50 -27 51 -13 1 -23 -3 -23 -8 0 -5 -6 -5 -13 2 -10 8 -17 7 -25 -1 -9
-9 -12 -9 -12 3 0 12 -2 12 -10 -1 -8 -12 -10 -12 -10 -1 0 10 -3 11 -13 2
-10 -8 -17 -7 -25 1 -9 9 -12 9 -12 0 0 -10 -5 -10 -21 -1 -17 9 -20 8 -13 -3
6 -10 5 -11 -7 -2 -8 6 -31 10 -52 7 -21 -2 -36 0 -33 5 3 5 -8 6 -25 4 -19
-3 -29 0 -29 8 0 10 -3 10 -15 0 -8 -7 -15 -8 -15 -2 0 9 -54 26 -75 23 -5 -1
-3 4 6 11 9 7 14 19 11 27 -3 9 0 11 8 6 10 -6 11 -4 4 6 -13 20 -13 79 0 79
7 0 7 3 1 8 -13 9 -15 52 -2 52 5 0 4 7 -3 15 -10 12 -10 15 1 15 11 0 11 2
-1 10 -8 5 -10 10 -4 10 6 0 11 7 11 15 0 8 -5 15 -11 15 -6 0 -4 5 4 10 13 8
13 13 2 31 -8 11 -9 18 -3 14 6 -3 11 -1 11 5 0 8 6 8 20 0 15 -8 20 -8 20 1
0 8 4 8 15 -1 8 -7 15 -9 15 -6 0 10 22 -14 42 -45 12 -19 28 -28 52 -31 21
-2 36 0 36 7 0 5 4 4 9 -4 6 -9 11 -10 15 -2 4 6 11 9 16 6 5 -3 15 1 23 9 8
8 17 12 21 9 3 -4 6 1 6 11 0 9 4 15 9 12 14 -9 21 20 8 34 -9 10 -9 11 1 6
14 -8 17 10 2 19 -7 4 -7 13 0 26 6 10 7 19 3 19 -5 0 -10 12 -11 26 -3 37
-30 59 -74 60 -22 0 -41 -3 -44 -8z m29 -42 c-4 -6 1 -5 10 2 14 12 19 12 31
-1 8 -8 12 -17 9 -21 -3 -3 0 -12 7 -21 10 -12 10 -15 -1 -15 -10 0 -11 -2 -2
-8 7 -4 9 -13 4 -21 -6 -10 -10 -10 -16 -2 -5 9 -11 9 -22 -1 -19 -15 -57 -22
-48 -8 3 5 1 10 -5 10 -6 0 -8 12 -5 29 3 17 0 33 -7 37 -7 5 -8 3 -3 -6 5 -9
4 -11 -4 -6 -16 10 -4 26 20 26 11 0 18 4 15 8 -3 5 1 9 9 9 8 0 11 -5 8 -11z
m-49 -130 c7 3 13 -1 13 -9 0 -9 -7 -12 -19 -9 -10 2 -18 12 -17 21 0 9 3 11
5 4 3 -7 11 -10 18 -7z m-719 -8 c6 -4 17 -3 25 2 7 4 20 5 29 0 9 -4 29 -14
44 -21 l28 -13 -27 -14 c-49 -26 -82 -31 -94 -17 -14 17 -43 8 -36 -11 3 -7 0
-16 -6 -20 -6 -4 -8 -3 -4 4 3 6 1 14 -5 17 -5 4 -8 13 -5 21 3 7 1 16 -4 19
-5 3 -7 12 -4 20 4 8 10 12 15 9 5 -3 9 -1 9 5 0 10 18 10 35 -1z m135 -58 c0
-5 -9 -10 -21 -10 -11 0 -17 5 -14 10 3 6 13 10 21 10 8 0 14 -4 14 -10z m377
-186 c-3 -3 -12 -4 -19 -1 -8 3 -5 6 6 6 11 1 17 -2 13 -5z m-37 -14 c0 -6 6
-10 13 -8 7 2 13 -1 14 -7 0 -5 -4 -8 -10 -6 -7 2 -18 4 -24 4 -15 0 -18 27
-3 27 6 0 10 -5 10 -10z m-289 -79 c6 9 9 10 9 2 0 -15 -31 -32 -47 -26 -7 3
-13 -1 -13 -7 0 -9 -5 -9 -17 1 -10 8 -14 9 -10 2 4 -6 3 -14 -3 -18 -5 -3
-10 -2 -10 4 0 7 -8 7 -24 1 -13 -5 -32 -7 -42 -6 -11 2 -24 -1 -31 -6 -7 -5
-13 -5 -17 0 -3 5 -23 8 -45 6 -24 -2 -41 2 -44 9 -3 8 5 12 22 11 14 0 29 4
33 10 5 7 8 7 8 1 0 -10 29 -10 105 0 22 3 52 6 67 7 18 0 25 4 21 12 -4 6 1
5 11 -3 15 -13 19 -13 27 0z m143 -3 c-6 -10 -4 -10 8 0 17 13 88 14 88 0 0
-4 12 -8 26 -8 17 0 23 -4 18 -12 -5 -8 -2 -9 9 -5 10 3 17 3 17 -2 0 -4 6 -8
13 -9 48 -6 62 -11 60 -19 -1 -5 14 -9 33 -8 19 1 34 -2 34 -6 0 -5 5 -9 11
-9 5 0 7 5 3 11 -5 8 -1 8 13 0 11 -6 23 -7 27 -4 3 3 6 2 6 -4 0 -11 42 -15
140 -14 l65 0 0 -59 c0 -33 -4 -60 -8 -60 -5 0 -5 -6 0 -12 13 -21 14 -50 2
-42 -8 4 -8 0 0 -15 7 -12 8 -21 2 -21 -5 0 -7 -9 -4 -20 3 -11 1 -20 -4 -20
-9 0 -13 -28 -14 -118 0 -23 -4 -40 -7 -38 -4 2 -7 -6 -8 -17 -2 -33 -9 -60
-22 -84 -7 -13 -10 -23 -7 -23 4 0 3 -6 -2 -12 -4 -7 -8 -15 -9 -18 -1 -3 -7
-21 -15 -40 -7 -19 -12 -38 -11 -42 1 -5 -3 -8 -8 -8 -6 0 -10 -7 -10 -15 0
-22 -22 -65 -30 -60 -5 3 -11 -2 -14 -11 -4 -10 -2 -13 7 -8 6 4 -10 -15 -38
-42 -27 -26 -49 -52 -47 -57 1 -5 -2 -6 -7 -2 -6 3 -16 -3 -23 -15 -7 -11 -21
-20 -31 -20 -10 0 -16 -4 -13 -8 3 -5 -10 -15 -29 -22 -19 -7 -32 -17 -30 -21
6 -9 -24 -21 -36 -13 -5 3 -9 -2 -9 -10 0 -9 -4 -16 -8 -16 -5 0 -25 -16 -45
-35 -41 -40 -53 -43 -62 -15 -4 13 -15 20 -32 20 -16 0 -27 7 -30 20 -3 11 -9
17 -14 14 -5 -3 -9 2 -9 10 0 9 -7 16 -16 16 -11 0 -14 5 -10 17 4 10 4 14 0
10 -9 -9 -61 28 -107 77 -21 23 -43 40 -48 39 -5 -2 -8 0 -7 5 4 12 -26 52
-38 52 -15 0 -26 28 -17 42 3 7 1 8 -5 4 -8 -5 -12 1 -12 14 0 14 -4 19 -12
14 -8 -5 -9 -2 -5 9 4 11 1 17 -8 17 -8 0 -15 9 -15 20 0 11 -4 20 -10 20 -5
0 -10 7 -10 16 0 9 -5 12 -12 8 -7 -5 -9 0 -6 14 3 12 2 22 -3 24 -9 3 -16 28
-24 88 -2 14 -4 27 -5 30 -2 3 -2 8 -1 13 0 4 -4 7 -10 7 -6 0 -9 7 -5 15 3 8
1 15 -4 15 -6 0 -10 11 -10 25 0 14 -5 25 -11 25 -8 0 -8 5 1 15 10 12 10 15
-1 15 -10 0 -10 3 -1 12 8 8 8 15 1 24 -5 7 -11 39 -13 72 -2 33 -7 65 -11 71
-4 7 -1 19 7 28 7 9 8 14 2 10 -8 -4 -12 8 -12 38 -1 42 10 66 22 47 3 -5 30
-8 60 -7 37 1 53 -2 49 -9 -3 -6 0 -5 8 2 16 14 33 16 24 2 -3 -5 -1 -10 4
-10 6 0 11 5 11 10 0 6 5 10 11 10 5 0 7 -6 3 -12 -4 -7 2 -5 13 5 11 9 23 14
27 10 10 -10 36 -12 36 -3 0 5 11 7 25 5 17 -1 25 3 25 13 0 13 3 13 12 4 15
-15 32 -16 23 -2 -3 6 1 11 9 11 9 1 19 3 24 4 4 2 17 6 30 10 12 4 22 12 22
17 0 6 6 8 14 5 8 -3 20 1 26 9 15 17 24 19 14 2z m-740 -39 c-3 -5 0 -9 7 -9
7 0 9 -3 6 -7 -4 -3 -1 -13 6 -21 10 -13 9 -14 -2 -7 -11 6 -13 2 -9 -19 3
-14 1 -29 -4 -32 -4 -3 -5 -10 -2 -16 5 -7 1 -9 -9 -5 -10 4 -17 1 -18 -6 0
-9 -2 -9 -6 1 -2 6 -9 10 -14 6 -5 -3 -9 2 -9 10 0 9 -4 16 -9 16 -4 0 -8 12
-7 27 1 22 -4 28 -19 28 -15 0 -20 -7 -20 -25 -1 -14 -4 -31 -9 -38 -4 -8 -3
-11 5 -10 6 2 14 -4 16 -12 4 -13 3 -13 -6 0 -10 13 -11 13 -11 0 -1 -24 -23
20 -25 50 -3 37 24 79 54 82 40 5 91 -3 85 -13z m1171 2 c-9 -8 -36 -10 -30
-2 2 4 11 8 20 8 8 0 13 -3 10 -6z m61 -10 c-8 -12 -46 -10 -46 2 0 5 9 5 20
2 13 -4 20 -2 20 6 0 7 3 10 6 6 3 -3 3 -10 0 -16z m424 -45 c0 5 11 10 25 10
14 1 22 -2 19 -7 -3 -5 1 -6 9 -3 17 6 41 -20 35 -38 -3 -7 0 -17 6 -23 6 -5
9 -9 7 -7 -3 1 -10 -12 -15 -30 -10 -30 -44 -49 -39 -22 1 7 -10 10 -27 9 -16
-1 -27 1 -25 5 3 5 0 10 -7 12 -15 5 -18 48 -4 49 6 0 -5 5 -24 11 -19 6 -29
13 -22 15 6 3 10 9 7 14 -4 5 1 6 9 3 9 -4 16 -1 16 6 0 10 3 10 15 0 8 -7 15
-9 15 -4z m-1595 -26 c-3 -5 -12 -10 -18 -10 -7 0 -6 4 3 10 19 12 23 12 15 0z
m1541 -34 c2 -15 -20 -16 -33 -1 -4 4 -2 5 5 1 7 -5 12 -1 12 10 0 19 13 11
16 -10z m-1665 -33 c11 -15 11 -16 0 -6 -7 6 -21 9 -30 6 -14 -4 -14 -3 -1 6
8 6 16 11 16 11 1 0 8 -8 15 -17z m119 1 c0 -8 -19 -13 -24 -6 -3 5 1 9 9 9 8
0 15 -2 15 -3z m1567 -56 c-3 -8 -6 -5 -6 6 -1 11 2 17 5 13 3 -3 4 -12 1 -19z
m247 -240 c-3 -4 0 -8 5 -8 6 0 11 -19 11 -43 0 -54 -26 -75 -72 -56 -19 8
-26 15 -19 22 12 12 -16 60 -30 51 -5 -3 -6 2 -3 10 3 9 10 16 16 16 5 0 6 -6
3 -12 -4 -7 0 -5 8 4 8 10 17 15 20 11 4 -3 7 -2 7 4 0 5 13 9 29 9 17 0 28
-3 25 -8z m-1604 -38 c0 -5 -2 -10 -4 -10 -3 0 -8 5 -11 10 -3 6 -1 10 4 10 6
0 11 -4 11 -10z m-390 -30 c15 0 44 -27 47 -44 1 -5 6 -12 11 -15 5 -3 6 -15
1 -26 -7 -18 -8 -18 -8 -2 -1 20 -28 20 -49 0 -10 -10 -16 -10 -27 0 -7 6 -11
15 -8 20 2 4 -3 7 -11 7 -9 0 -16 5 -16 11 0 5 -5 7 -10 4 -6 -4 -8 -10 -5
-15 3 -4 -1 -10 -8 -13 -9 -3 -12 4 -11 24 2 35 27 62 42 47 6 -6 12 -6 17 3
6 8 4 10 -5 4 -9 -6 -11 -4 -5 4 5 9 10 10 18 2 6 -6 18 -11 27 -11z m1878 -9
c-1 -9 2 -23 7 -31 7 -13 6 -13 -7 -2 -22 17 -29 49 -11 49 7 0 13 -7 11 -16z
m237 1 c-3 -3 -11 0 -18 7 -9 10 -8 11 6 5 10 -3 15 -9 12 -12z m-211 -55 c3
3 6 1 6 -6 0 -7 4 -10 8 -7 4 2 14 1 22 -5 15 -9 14 -9 -23 -13 -7 0 -24 10
-37 23 -22 20 -22 22 -4 13 12 -6 24 -8 28 -5z m-1977 -32 c0 -8 -4 -12 -9 -9
-5 3 -6 10 -3 15 9 13 12 11 12 -6z m47 -34 c-8 -8 -34 -10 -38 -2 -3 4 6 7
19 7 14 0 22 -2 19 -5z m500 -52 c-3 -5 2 -12 10 -15 9 -3 14 -10 11 -14 -3
-5 3 -13 12 -19 10 -6 13 -11 8 -11 -6 0 -22 14 -37 30 -14 17 -24 30 -22 30
3 0 -1 10 -7 23 -12 22 -12 22 9 3 12 -10 19 -23 16 -27z m1327 -132 c-10 -9
-11 -8 -5 6 3 10 9 15 12 12 3 -3 0 -11 -7 -18z m-11 -58 c0 -5 5 -7 10 -4 6
3 10 1 10 -5 0 -6 3 -9 8 -7 4 3 12 -1 19 -8 10 -11 10 -15 0 -18 -7 -3 -4 -6
6 -6 9 -1 17 -6 17 -12 0 -5 -5 -7 -11 -3 -8 4 -8 0 0 -15 10 -18 7 -25 -25
-56 -35 -34 -69 -50 -45 -21 14 16 4 46 -15 46 -17 0 -17 5 -2 33 11 21 10 21
-8 7 -18 -14 -18 -14 -3 5 21 27 31 55 18 55 -6 0 -7 5 -4 10 8 13 25 13 25
-1z m-1133 -51 c-3 -8 -6 -5 -6 6 -1 11 2 17 5 13 3 -3 4 -12 1 -19z m1061
-13 c-3 -3 -9 2 -12 12 -6 14 -5 15 5 6 7 -7 10 -15 7 -18z m-668 -119 c0 -2
-7 -7 -16 -10 -8 -3 -12 -2 -9 4 6 10 25 14 25 6z m-296 -237 c-3 -5 -11 -9
-17 -8 -9 0 -9 2 0 6 10 3 10 10 2 26 -10 21 -9 21 5 3 9 -10 13 -23 10 -27z
m303 18 c6 -7 13 -21 15 -32 2 -11 8 -23 13 -27 6 -5 5 -8 -2 -8 -7 0 -13 -5
-13 -11 0 -5 6 -7 13 -3 6 3 -1 -6 -18 -20 -19 -16 -39 -25 -53 -22 -16 2 -20
0 -12 -9 7 -8 5 -12 -5 -12 -8 0 -15 4 -15 8 0 5 -6 6 -12 4 -7 -3 -18 6 -25
20 -6 14 -7 25 -3 25 5 0 10 -5 12 -11 2 -6 16 -13 30 -14 21 -2 26 1 25 15
-1 10 -4 18 -8 17 -7 -2 -9 3 -9 29 0 8 3 13 8 11 4 -3 14 5 23 17 16 20 15
21 -17 22 -23 1 -34 -3 -34 -13 0 -8 -4 -12 -9 -9 -5 4 -12 0 -14 -6 -4 -9 -6
-9 -6 -1 -1 6 10 21 24 32 27 21 70 20 92 -2z m-617 -17 c-20 -13 -4 -13 21 0
11 6 19 7 19 1 0 -5 6 -9 13 -8 31 1 48 -4 43 -12 -4 -5 -2 -11 3 -13 15 -5
17 -51 2 -56 -9 -3 -11 0 -7 9 5 9 3 8 -6 -1 -7 -9 -21 -14 -32 -12 -13 3 -16
0 -10 -10 4 -7 -2 -5 -13 5 -11 10 -30 19 -42 20 -12 1 -19 7 -17 13 2 6 -1
17 -7 24 -9 10 -9 11 2 5 10 -6 13 -4 8 7 -6 16 10 38 28 38 5 0 3 -5 -5 -10z"/>
<path d="M715 2650 c3 -5 8 -10 11 -10 2 0 4 5 4 10 0 6 -5 10 -11 10 -5 0 -7
-4 -4 -10z"/>
<path d="M1090 2619 c0 -6 -4 -8 -9 -4 -5 3 -13 0 -17 -6 -4 -8 -9 -7 -15 2
-7 11 -9 11 -9 1 0 -7 -4 -11 -9 -7 -6 3 -14 -3 -20 -12 -6 -11 -11 -13 -11
-5 0 10 -4 10 -21 -1 -11 -8 -30 -12 -41 -9 -13 3 -19 1 -15 -5 3 -5 0 -10 -8
-10 -8 0 -11 5 -8 10 3 6 1 7 -5 3 -6 -4 -24 -9 -39 -11 -16 -2 -37 -7 -47
-11 -15 -6 -17 -4 -11 7 7 11 6 12 -6 2 -12 -10 -18 -10 -29 0 -10 9 -11 9 -6
0 5 -9 -8 -11 -48 -9 -31 2 -53 -1 -50 -5 3 -5 0 -9 -5 -9 -6 0 -11 -8 -11
-18 0 -10 -5 -23 -12 -30 -9 -9 -9 -12 1 -12 11 0 11 -3 0 -17 -10 -11 -10
-14 -1 -9 6 4 12 2 12 -3 0 -6 -6 -11 -12 -11 -10 0 -9 -3 1 -9 9 -6 10 -10 2
-16 -9 -5 -9 -11 1 -23 11 -13 11 -14 -1 -7 -10 5 -12 4 -7 -4 8 -12 17 -54
18 -86 1 -11 6 -26 11 -32 5 -7 6 -13 2 -13 -4 0 -2 -7 5 -15 7 -9 8 -15 2
-15 -5 0 -8 -9 -5 -20 3 -11 9 -17 14 -14 5 3 6 -2 3 -10 -4 -9 -1 -16 6 -16
7 0 10 -7 6 -15 -3 -8 -2 -15 3 -15 11 0 27 -47 33 -97 1 -7 5 -13 10 -13 5 0
6 -4 3 -10 -3 -5 -2 -10 4 -10 5 0 13 -9 16 -20 3 -11 13 -20 21 -20 8 0 12
-4 9 -10 -3 -5 -1 -10 4 -10 6 0 11 -6 11 -12 0 -7 13 -22 29 -33 17 -11 28
-21 26 -24 -3 -2 4 -11 15 -18 11 -8 17 -19 14 -25 -4 -7 -2 -8 5 -4 6 4 14 0
17 -8 3 -9 12 -16 20 -16 8 0 13 -3 13 -7 -3 -20 2 -34 11 -28 5 3 19 -6 32
-20 12 -14 30 -25 40 -25 11 0 16 -4 13 -10 -3 -5 1 -10 10 -10 10 0 13 -5 9
-12 -6 -10 -4 -10 7 -2 8 6 24 14 36 17 19 4 21 2 14 -12 -7 -13 -5 -17 10
-18 12 -1 17 3 13 9 -4 7 -2 8 5 4 6 -4 19 -2 28 6 12 9 15 9 9 0 -10 -17 57
24 79 48 10 11 22 17 27 14 4 -3 7 0 6 8 -2 7 3 12 10 11 6 -2 12 1 12 5 0 5
7 17 16 28 8 10 12 12 8 4 -4 -8 13 8 39 35 26 27 47 50 47 52 0 3 11 19 25
37 14 18 22 36 18 39 -3 4 -1 7 5 7 7 0 12 7 12 15 0 8 6 15 13 15 8 0 7 4 -3
10 -10 6 -11 10 -2 10 6 0 12 6 12 14 0 8 7 17 16 20 8 3 13 10 10 15 -6 10
18 64 25 56 3 -2 4 23 3 56 0 32 2 59 6 59 4 0 6 19 5 43 -1 23 2 50 7 61 8
14 7 17 -3 11 -8 -6 -11 -4 -7 6 3 8 9 22 13 32 4 10 3 17 -4 17 -8 0 -9 6 -2
18 11 21 11 62 -1 62 -4 0 -5 9 -3 20 2 11 -1 20 -6 20 -6 0 -7 5 -3 11 5 8
-3 10 -24 7 -17 -2 -28 0 -25 4 3 5 -10 6 -29 3 -18 -3 -40 -7 -48 -8 -8 -2
-20 -6 -27 -10 -7 -4 -16 0 -22 10 -10 17 -10 17 -11 -2 -1 -11 -4 -14 -7 -7
-2 6 -11 12 -19 12 -9 0 -12 -5 -8 -11 4 -8 1 -8 -12 -2 -11 5 -29 8 -42 7
-12 0 -25 3 -28 8 -4 6 -9 6 -14 -2 -5 -8 -11 -8 -21 3 -8 7 -19 12 -26 10 -6
-2 -24 9 -39 24 -28 28 -74 41 -74 22z m-174 -88 c11 9 14 8 14 -2 0 -10 3
-10 12 -1 15 15 28 15 28 1 0 -5 -4 -8 -9 -4 -5 3 -12 1 -15 -3 -3 -5 -17 -8
-31 -7 -14 2 -25 -1 -25 -7 0 -7 -5 -7 -13 1 -10 8 -17 7 -27 -2 -12 -10 -12
-9 -1 5 7 10 17 16 21 13 5 -3 12 0 16 7 6 9 9 9 12 0 3 -10 7 -10 18 -1z
m231 -8 c13 -9 23 -12 23 -7 0 4 7 -1 15 -12 8 -10 15 -14 15 -9 0 6 4 4 9 -4
5 -7 28 -14 55 -14 25 -1 46 -6 46 -12 0 -7 3 -7 8 0 10 14 32 17 32 5 0 -12
22 -9 32 5 5 6 8 6 8 -1 0 -11 52 -10 71 1 5 4 9 0 9 -7 0 -9 3 -9 10 2 7 11
10 -3 9 -47 -1 -42 -6 -60 -13 -56 -6 3 -5 0 1 -7 10 -11 10 -17 0 -29 -10
-12 -9 -13 3 -6 13 8 13 7 1 -8 -10 -13 -10 -17 -1 -17 10 0 10 -3 0 -15 -10
-12 -10 -15 1 -15 9 0 10 -3 3 -8 -5 -4 -10 -22 -9 -39 0 -18 -4 -33 -10 -33
-5 0 -3 -5 5 -10 9 -6 10 -10 3 -10 -6 0 -10 -9 -8 -20 2 -11 -1 -22 -6 -25
-5 -4 -7 -11 -4 -16 4 -5 1 -9 -5 -9 -6 0 -8 -4 -5 -10 3 -5 0 -10 -7 -10 -9
0 -9 -3 2 -10 10 -6 11 -10 3 -10 -7 0 -13 -7 -13 -15 0 -8 -7 -15 -15 -15 -9
0 -12 -6 -9 -15 4 -10 0 -15 -11 -15 -9 0 -13 -5 -10 -10 3 -6 -1 -13 -9 -16
-9 -3 -16 -12 -16 -20 0 -8 -8 -14 -17 -14 -9 0 -14 -3 -10 -6 7 -7 -49 -64
-64 -64 -6 0 -8 -4 -4 -9 3 -5 1 -12 -5 -16 -5 -3 -10 -1 -10 6 0 7 -6 5 -13
-6 -8 -10 -19 -15 -26 -11 -6 4 -10 3 -9 -4 2 -6 -10 -18 -27 -28 -16 -9 -32
-20 -33 -25 -2 -4 -8 -5 -13 -1 -5 3 -9 -1 -9 -8 0 -7 -7 -2 -16 10 -12 18
-19 21 -30 11 -11 -9 -15 -8 -20 5 -3 9 -10 13 -15 10 -5 -3 -9 -2 -9 3 0 4
-13 14 -30 21 -16 8 -30 20 -30 28 0 8 -4 14 -9 14 -4 0 -34 25 -65 55 -55 54
-81 96 -77 123 1 6 -3 12 -9 12 -6 0 -8 5 -5 10 3 6 1 10 -5 10 -6 0 -9 4 -5
9 3 5 0 15 -7 23 -7 7 -15 24 -16 38 -2 14 -8 31 -14 37 -5 7 -11 29 -13 50
-2 21 -4 39 -4 41 -1 1 -1 4 0 8 0 3 -6 16 -15 29 -10 16 -12 26 -5 30 7 5 6
11 -2 21 -7 9 -8 14 -1 14 6 0 9 9 7 20 -2 11 0 18 4 15 5 -2 12 11 15 30 4
19 11 35 17 35 6 0 7 -5 3 -12 -4 -7 -3 -8 4 -4 21 13 52 15 52 4 0 -7 6 -6
15 2 12 10 15 10 15 -1 0 -11 2 -11 10 1 5 8 10 10 10 5 0 -14 36 -11 75 5 17
6 35 13 41 14 7 1 18 7 26 14 8 6 18 9 21 5 4 -3 7 -1 7 5 0 6 7 9 15 6 8 -4
15 -2 15 4 0 15 52 11 77 -5z m353 7 c0 -5 -5 -10 -11 -10 -5 0 -7 5 -4 10 3
6 8 10 11 10 2 0 4 -4 4 -10z m38 -11 c9 -13 9 -16 -3 -16 -8 0 -12 4 -9 9 3
4 0 8 -6 8 -6 0 -8 5 -5 11 4 6 8 9 9 7 1 -2 7 -10 14 -19z m-68 -9 c0 -5 -2
-10 -4 -10 -3 0 -8 5 -11 10 -3 6 -1 10 4 10 6 0 11 -4 11 -10z m-740 -40 c0
-5 -5 -9 -12 -7 -7 1 -12 -4 -13 -10 0 -23 -18 -19 -20 5 -1 17 4 22 22 22 13
0 23 -4 23 -10z m814 -43 c-7 -64 -13 -89 -20 -95 -4 -4 -5 0 -1 9 3 9 0 22
-6 28 -8 8 -8 11 2 11 8 0 11 6 7 16 -3 8 -2 13 3 9 5 -3 8 10 7 30 -2 19 0
32 5 30 4 -3 6 -20 3 -38z m-20 -235 c3 -5 -1 -9 -9 -9 -8 0 -12 4 -9 9 3 4 7
8 9 8 2 0 6 -4 9 -8z m-9 -51 c3 -5 2 -12 -3 -15 -5 -3 -9 1 -9 9 0 17 3 19
12 6z m-105 -211 c0 -5 -2 -10 -4 -10 -3 0 -8 5 -11 10 -3 6 -1 10 4 10 6 0
11 -4 11 -10z m-51 -51 c-13 -10 -28 -19 -34 -19 -5 0 2 8 18 18 15 10 24 22
20 27 -5 4 -2 5 6 0 11 -6 9 -12 -10 -26z m-32 -35 c-3 -3 -12 -4 -19 -1 -8 3
-5 6 6 6 11 1 17 -2 13 -5z m-34 -29 c-3 -9 -8 -14 -11 -11 -2 3 -13 -5 -22
-17 -26 -33 -117 -80 -126 -66 -8 13 16 31 33 24 7 -2 17 4 22 13 6 9 11 13
11 8 0 -6 6 -2 13 7 9 13 68 52 84 56 1 1 0 -6 -4 -14z"/>
<path d="M1050 2419 c0 -6 -4 -7 -10 -4 -10 6 -14 -15 -11 -44 2 -8 -2 -10
-11 -5 -10 6 -11 5 -1 -7 10 -13 9 -20 -8 -37 -13 -14 -15 -22 -7 -22 9 -1 8
-4 -3 -13 -18 -14 -44 -58 -41 -69 1 -5 -2 -8 -7 -8 -4 0 -6 -16 -4 -36 2 -21
0 -33 -6 -30 -27 17 25 -57 59 -84 36 -29 40 -35 37 -72 -3 -29 1 -42 12 -46
8 -3 17 0 19 6 2 7 8 12 13 12 6 0 8 -4 5 -8 -2 -4 4 -9 15 -9 11 -1 17 2 14
8 -4 5 -1 9 4 9 6 0 11 -6 11 -14 0 -8 5 -18 12 -22 7 -4 8 -3 4 4 -5 8 0 12
13 12 22 0 23 1 25 42 1 15 -2 24 -7 21 -5 -3 -8 0 -5 8 3 8 9 14 14 14 23 2
54 17 49 26 -4 5 1 9 11 9 13 0 14 3 4 15 -7 8 -16 12 -21 9 -5 -3 -6 3 -2 12
4 12 3 15 -5 10 -7 -4 -12 -3 -12 1 0 5 -9 9 -19 9 -11 0 -17 -4 -15 -8 3 -4
-4 -8 -15 -8 -12 0 -21 -5 -21 -11 0 -8 -5 -8 -15 1 -12 10 -15 10 -15 0 0
-10 -3 -10 -15 0 -11 9 -15 9 -15 1 0 -15 -35 18 -43 41 -3 9 -1 19 6 22 9 3
9 5 0 5 -7 1 -13 8 -13 16 0 19 -14 19 -34 -1 -9 -8 -16 -11 -16 -5 0 5 5 13
10 16 15 9 12 27 -2 20 -7 -4 -6 0 3 7 9 7 26 31 37 53 12 21 27 40 34 41 7 1
22 6 32 10 13 5 17 4 13 -3 -6 -9 24 -23 58 -28 6 0 9 -6 8 -12 -3 -12 8 -12
44 1 27 9 25 27 -5 75 -16 26 -18 38 -10 48 8 11 7 12 -6 7 -9 -4 -16 -1 -16
6 0 9 -4 9 -17 -1 -15 -12 -16 -12 -8 1 5 10 1 8 -13 -4 -12 -10 -20 -22 -17
-25 2 -4 0 -13 -4 -20 -6 -9 -13 -2 -24 22 -16 34 -47 57 -47 36z m-47 -282
c3 -8 -1 -14 -8 -14 -7 0 -11 6 -8 14 3 7 6 13 8 13 2 0 5 -6 8 -13z m113
-140 c5 -1 9 -8 10 -15 2 -10 -1 -11 -12 -1 -8 6 -14 8 -14 5 0 -4 -6 -1 -14
6 -10 9 -11 15 -3 20 6 4 14 2 18 -3 3 -6 10 -11 15 -12z"/>
<path d="M3057 2969 c-8 -13 -86 -217 -172 -454 -263 -721 -332 -908 -349
-947 -36 -84 -99 -128 -184 -128 -19 0 -31 -4 -27 -10 7 -11 455 -11 455 0 0
4 -22 10 -50 14 -52 7 -70 24 -70 67 0 25 148 479 160 493 13 13 439 14 454 1
7 -5 46 -98 86 -205 40 -107 83 -223 96 -258 l24 -62 -20 -20 -20 -20 23 -9
c35 -13 394 -14 402 -1 4 6 -6 10 -25 10 -78 0 -138 28 -172 82 -21 31 -163
391 -394 992 -92 241 -175 448 -184 459 l-17 21 -16 -25z m93 -597 c50 -139
90 -259 90 -266 0 -9 -47 -12 -190 -10 -105 0 -192 3 -194 5 -3 3 156 500 178
554 10 24 -2 53 116 -283z"/>
<path d="M3997 2952 c-31 -6 -7 -22 33 -22 55 0 86 -17 106 -59 15 -32 17 -90
18 -596 1 -817 -1 -835 -115 -835 -16 0 -29 -4 -29 -9 0 -12 508 -13 515 -2 2
5 -25 11 -61 14 -132 10 -129 -9 -129 757 0 338 4 632 8 653 11 53 38 77 86
77 22 0 43 5 46 10 3 6 0 10 -7 10 -7 0 -112 1 -234 3 -121 1 -228 1 -237 -1z"/>
</g>
</svg>
